<mxfile host="app.diagrams.net" modified="2024-02-05T22:56:15.921Z" agent="Mozilla/5.0 (Windows NT 10.0; Win64; x64) AppleWebKit/537.36 (KHTML, like Gecko) Chrome/121.0.0.0 Safari/537.36 Edg/121.0.0.0" etag="W9MWsEaksTlsTiHIeQdN" version="23.1.0" type="device">
  <diagram name="PÃ¡gina-1" id="SqIO-kyn934YJiLdCZ14">
    <mxGraphModel dx="774" dy="378" grid="1" gridSize="10" guides="1" tooltips="1" connect="1" arrows="1" fold="1" page="1" pageScale="1" pageWidth="827" pageHeight="1169" math="0" shadow="0">
      <root>
        <mxCell id="0" />
        <mxCell id="1" parent="0" />
        <mxCell id="pB00yPSIvv6tMr1nVHtU-1" value="Conta" style="swimlane;fontStyle=1;align=center;verticalAlign=top;childLayout=stackLayout;horizontal=1;startSize=26;horizontalStack=0;resizeParent=1;resizeParentMax=0;resizeLast=0;collapsible=1;marginBottom=0;whiteSpace=wrap;html=1;" vertex="1" parent="1">
          <mxGeometry x="260" y="230" width="170" height="190" as="geometry" />
        </mxCell>
        <mxCell id="pB00yPSIvv6tMr1nVHtU-2" value="+ numero: int" style="text;strokeColor=none;fillColor=none;align=left;verticalAlign=top;spacingLeft=4;spacingRight=4;overflow=hidden;rotatable=0;points=[[0,0.5],[1,0.5]];portConstraint=eastwest;whiteSpace=wrap;html=1;" vertex="1" parent="pB00yPSIvv6tMr1nVHtU-1">
          <mxGeometry y="26" width="170" height="26" as="geometry" />
        </mxCell>
        <mxCell id="pB00yPSIvv6tMr1nVHtU-5" value="+ saldo: float" style="text;strokeColor=none;fillColor=none;align=left;verticalAlign=top;spacingLeft=4;spacingRight=4;overflow=hidden;rotatable=0;points=[[0,0.5],[1,0.5]];portConstraint=eastwest;whiteSpace=wrap;html=1;" vertex="1" parent="pB00yPSIvv6tMr1nVHtU-1">
          <mxGeometry y="52" width="170" height="26" as="geometry" />
        </mxCell>
        <mxCell id="pB00yPSIvv6tMr1nVHtU-6" value="+ cliente: cliente" style="text;strokeColor=none;fillColor=none;align=left;verticalAlign=top;spacingLeft=4;spacingRight=4;overflow=hidden;rotatable=0;points=[[0,0.5],[1,0.5]];portConstraint=eastwest;whiteSpace=wrap;html=1;" vertex="1" parent="pB00yPSIvv6tMr1nVHtU-1">
          <mxGeometry y="78" width="170" height="26" as="geometry" />
        </mxCell>
        <mxCell id="pB00yPSIvv6tMr1nVHtU-3" value="" style="line;strokeWidth=1;fillColor=none;align=left;verticalAlign=middle;spacingTop=-1;spacingLeft=3;spacingRight=3;rotatable=0;labelPosition=right;points=[];portConstraint=eastwest;strokeColor=inherit;" vertex="1" parent="pB00yPSIvv6tMr1nVHtU-1">
          <mxGeometry y="104" width="170" height="8" as="geometry" />
        </mxCell>
        <mxCell id="pB00yPSIvv6tMr1nVHtU-4" value="+ sacar(float): bool" style="text;strokeColor=none;fillColor=none;align=left;verticalAlign=top;spacingLeft=4;spacingRight=4;overflow=hidden;rotatable=0;points=[[0,0.5],[1,0.5]];portConstraint=eastwest;whiteSpace=wrap;html=1;" vertex="1" parent="pB00yPSIvv6tMr1nVHtU-1">
          <mxGeometry y="112" width="170" height="26" as="geometry" />
        </mxCell>
        <mxCell id="pB00yPSIvv6tMr1nVHtU-7" value="+ depositar(float): bool" style="text;strokeColor=none;fillColor=none;align=left;verticalAlign=top;spacingLeft=4;spacingRight=4;overflow=hidden;rotatable=0;points=[[0,0.5],[1,0.5]];portConstraint=eastwest;whiteSpace=wrap;html=1;" vertex="1" parent="pB00yPSIvv6tMr1nVHtU-1">
          <mxGeometry y="138" width="170" height="26" as="geometry" />
        </mxCell>
        <mxCell id="pB00yPSIvv6tMr1nVHtU-8" value="+ transferir(float, conta): bool" style="text;strokeColor=none;fillColor=none;align=left;verticalAlign=top;spacingLeft=4;spacingRight=4;overflow=hidden;rotatable=0;points=[[0,0.5],[1,0.5]];portConstraint=eastwest;whiteSpace=wrap;html=1;" vertex="1" parent="pB00yPSIvv6tMr1nVHtU-1">
          <mxGeometry y="164" width="170" height="26" as="geometry" />
        </mxCell>
        <mxCell id="pB00yPSIvv6tMr1nVHtU-9" value="Cliente" style="swimlane;fontStyle=1;align=center;verticalAlign=top;childLayout=stackLayout;horizontal=1;startSize=26;horizontalStack=0;resizeParent=1;resizeParentMax=0;resizeLast=0;collapsible=1;marginBottom=0;whiteSpace=wrap;html=1;" vertex="1" parent="1">
          <mxGeometry x="540" y="282" width="160" height="86" as="geometry" />
        </mxCell>
        <mxCell id="pB00yPSIvv6tMr1nVHtU-10" value="+ nome: string" style="text;strokeColor=none;fillColor=none;align=left;verticalAlign=top;spacingLeft=4;spacingRight=4;overflow=hidden;rotatable=0;points=[[0,0.5],[1,0.5]];portConstraint=eastwest;whiteSpace=wrap;html=1;" vertex="1" parent="pB00yPSIvv6tMr1nVHtU-9">
          <mxGeometry y="26" width="160" height="26" as="geometry" />
        </mxCell>
        <mxCell id="pB00yPSIvv6tMr1nVHtU-13" value="+ cpf: string" style="text;strokeColor=none;fillColor=none;align=left;verticalAlign=top;spacingLeft=4;spacingRight=4;overflow=hidden;rotatable=0;points=[[0,0.5],[1,0.5]];portConstraint=eastwest;whiteSpace=wrap;html=1;" vertex="1" parent="pB00yPSIvv6tMr1nVHtU-9">
          <mxGeometry y="52" width="160" height="26" as="geometry" />
        </mxCell>
        <mxCell id="pB00yPSIvv6tMr1nVHtU-11" value="" style="line;strokeWidth=1;fillColor=none;align=left;verticalAlign=middle;spacingTop=-1;spacingLeft=3;spacingRight=3;rotatable=0;labelPosition=right;points=[];portConstraint=eastwest;strokeColor=inherit;" vertex="1" parent="pB00yPSIvv6tMr1nVHtU-9">
          <mxGeometry y="78" width="160" height="8" as="geometry" />
        </mxCell>
        <mxCell id="pB00yPSIvv6tMr1nVHtU-14" value="" style="endArrow=open;html=1;endSize=12;startArrow=diamondThin;startSize=14;startFill=1;edgeStyle=orthogonalEdgeStyle;align=left;verticalAlign=bottom;rounded=0;exitX=1;exitY=0.5;exitDx=0;exitDy=0;entryX=0;entryY=0.5;entryDx=0;entryDy=0;" edge="1" parent="1" source="pB00yPSIvv6tMr1nVHtU-6" target="pB00yPSIvv6tMr1nVHtU-10">
          <mxGeometry x="-1" y="3" relative="1" as="geometry">
            <mxPoint x="490" y="250" as="sourcePoint" />
            <mxPoint x="650" y="250" as="targetPoint" />
          </mxGeometry>
        </mxCell>
        <mxCell id="pB00yPSIvv6tMr1nVHtU-15" value="ContaPoupanca" style="swimlane;fontStyle=1;align=center;verticalAlign=top;childLayout=stackLayout;horizontal=1;startSize=26;horizontalStack=0;resizeParent=1;resizeParentMax=0;resizeLast=0;collapsible=1;marginBottom=0;whiteSpace=wrap;html=1;" vertex="1" parent="1">
          <mxGeometry x="414" y="499" width="176" height="86" as="geometry" />
        </mxCell>
        <mxCell id="pB00yPSIvv6tMr1nVHtU-16" value="+ taxaRendimento: float" style="text;strokeColor=none;fillColor=none;align=left;verticalAlign=top;spacingLeft=4;spacingRight=4;overflow=hidden;rotatable=0;points=[[0,0.5],[1,0.5]];portConstraint=eastwest;whiteSpace=wrap;html=1;" vertex="1" parent="pB00yPSIvv6tMr1nVHtU-15">
          <mxGeometry y="26" width="176" height="26" as="geometry" />
        </mxCell>
        <mxCell id="pB00yPSIvv6tMr1nVHtU-17" value="" style="line;strokeWidth=1;fillColor=none;align=left;verticalAlign=middle;spacingTop=-1;spacingLeft=3;spacingRight=3;rotatable=0;labelPosition=right;points=[];portConstraint=eastwest;strokeColor=inherit;" vertex="1" parent="pB00yPSIvv6tMr1nVHtU-15">
          <mxGeometry y="52" width="176" height="8" as="geometry" />
        </mxCell>
        <mxCell id="pB00yPSIvv6tMr1nVHtU-18" value="+ aplicarRendimento()" style="text;strokeColor=none;fillColor=none;align=left;verticalAlign=top;spacingLeft=4;spacingRight=4;overflow=hidden;rotatable=0;points=[[0,0.5],[1,0.5]];portConstraint=eastwest;whiteSpace=wrap;html=1;" vertex="1" parent="pB00yPSIvv6tMr1nVHtU-15">
          <mxGeometry y="60" width="176" height="26" as="geometry" />
        </mxCell>
        <mxCell id="pB00yPSIvv6tMr1nVHtU-19" value="ContaCorrente" style="swimlane;fontStyle=1;align=center;verticalAlign=top;childLayout=stackLayout;horizontal=1;startSize=26;horizontalStack=0;resizeParent=1;resizeParentMax=0;resizeLast=0;collapsible=1;marginBottom=0;whiteSpace=wrap;html=1;" vertex="1" parent="1">
          <mxGeometry x="130" y="499" width="170" height="86" as="geometry" />
        </mxCell>
        <mxCell id="pB00yPSIvv6tMr1nVHtU-20" value="+ limiteChequeEspecial: float" style="text;strokeColor=none;fillColor=none;align=left;verticalAlign=top;spacingLeft=4;spacingRight=4;overflow=hidden;rotatable=0;points=[[0,0.5],[1,0.5]];portConstraint=eastwest;whiteSpace=wrap;html=1;" vertex="1" parent="pB00yPSIvv6tMr1nVHtU-19">
          <mxGeometry y="26" width="170" height="26" as="geometry" />
        </mxCell>
        <mxCell id="pB00yPSIvv6tMr1nVHtU-21" value="" style="line;strokeWidth=1;fillColor=none;align=left;verticalAlign=middle;spacingTop=-1;spacingLeft=3;spacingRight=3;rotatable=0;labelPosition=right;points=[];portConstraint=eastwest;strokeColor=inherit;" vertex="1" parent="pB00yPSIvv6tMr1nVHtU-19">
          <mxGeometry y="52" width="170" height="8" as="geometry" />
        </mxCell>
        <mxCell id="pB00yPSIvv6tMr1nVHtU-22" value="+ sacar(float): bool" style="text;strokeColor=none;fillColor=none;align=left;verticalAlign=top;spacingLeft=4;spacingRight=4;overflow=hidden;rotatable=0;points=[[0,0.5],[1,0.5]];portConstraint=eastwest;whiteSpace=wrap;html=1;" vertex="1" parent="pB00yPSIvv6tMr1nVHtU-19">
          <mxGeometry y="60" width="170" height="26" as="geometry" />
        </mxCell>
        <mxCell id="pB00yPSIvv6tMr1nVHtU-23" value="Extends" style="endArrow=block;endSize=16;endFill=0;html=1;rounded=0;entryX=0.338;entryY=1.022;entryDx=0;entryDy=0;exitX=0.5;exitY=0;exitDx=0;exitDy=0;entryPerimeter=0;" edge="1" parent="1" source="pB00yPSIvv6tMr1nVHtU-19" target="pB00yPSIvv6tMr1nVHtU-8">
          <mxGeometry width="160" relative="1" as="geometry">
            <mxPoint x="150" y="470" as="sourcePoint" />
            <mxPoint x="330" y="430" as="targetPoint" />
          </mxGeometry>
        </mxCell>
        <mxCell id="pB00yPSIvv6tMr1nVHtU-24" value="Extends" style="endArrow=block;endSize=16;endFill=0;html=1;rounded=0;entryX=0.713;entryY=1.059;entryDx=0;entryDy=0;exitX=0.5;exitY=0;exitDx=0;exitDy=0;entryPerimeter=0;" edge="1" parent="1" source="pB00yPSIvv6tMr1nVHtU-15" target="pB00yPSIvv6tMr1nVHtU-8">
          <mxGeometry width="160" relative="1" as="geometry">
            <mxPoint x="340" y="518" as="sourcePoint" />
            <mxPoint x="447" y="440" as="targetPoint" />
          </mxGeometry>
        </mxCell>
      </root>
    </mxGraphModel>
  </diagram>
</mxfile>
